<svg width="379" height="323" viewBox="0 0 379 323" fill="none" xmlns="http://www.w3.org/2000/svg">
<path d="M7.5 203.5C4.16667 223.833 -1.4 269.8 3 291C15 279.8 52.3333 265 69.5 259C83.5 255.4 97.3333 257.5 102.5 259C124.5 263 200.667 302.333 236 321.5C229.2 308.3 224.833 288.333 223.5 280C221.5 268.4 224.667 247.833 226.5 239C230.1 226.6 237.333 213.5 240.5 208.5C245.7 201.3 257.333 192.5 262.5 189C270.1 183.4 288.333 179.667 296.5 178.5C313.7 176.5 335 181.667 343.5 184.5C352.3 188.1 362.5 202 366.5 208.5C370.333 204 378 192.4 378 182C378.667 176.5 378.5 161.2 372.5 144C370.167 138.167 361.1 122.7 343.5 107.5C336.667 92.8333 319.9 60.7 307.5 49.5C298.833 40.8333 276.5 21.5 256.5 13.5C246.5 9.5 221.3 1.5 200.5 1.5C189.333 0.83333 161.3 1.6 138.5 10C128.667 13.8333 104.6 25.8 87 43C74.8333 56.3333 47.7 89.9 36.5 117.5C29 133 12.7 171.9 7.5 203.5Z" fill="#10A984" stroke="#06664F"/>
<path d="M222.5 61C218.167 59.5 199.8 57.4 161 61C166.2 70.2 196.833 78.1667 211.5 81C211.5 92.2 218.833 103.333 222.5 107.5C238.9 116.7 246.333 114 248 111.5C246 104.7 247.167 92.3333 248 87C265.2 92.2 276.5 93.5 280 93.5C292.8 93.5 299.667 89.1667 301.5 87C299.167 83.8333 293.3 77.5 288.5 77.5C276.667 72 246.9 61 222.5 61Z" fill="white"/>
<path d="M222.5 61C218.167 59.5 199.8 57.4 161 61C166.2 70.2 196.833 78.1667 211.5 81C211.5 92.2 218.833 103.333 222.5 107.5C238.9 116.7 246.333 114 248 111.5C246 104.7 247.167 92.3333 248 87C265.2 92.2 276.5 93.5 280 93.5C292.8 93.5 299.667 89.1667 301.5 87C299.167 83.8333 293.3 77.5 288.5 77.5C276.667 72 246.9 61 222.5 61Z" fill="white"/>
<path d="M283 133.5C274 138.833 255 153.7 251 170.5C270.2 164.1 299.333 165.167 311.5 166.5C330.3 166.5 350.667 176.5 358.5 181.5C364.5 181.5 367 168.5 367.5 162C367.5 150.8 361.5 138.333 358.5 133.5C354.5 126.3 345.5 119.5 341.5 117C331 116.5 304.6 119.1 283 133.5Z" fill="white"/>
<path d="M283 133.5C274 138.833 255 153.7 251 170.5C270.2 164.1 299.333 165.167 311.5 166.5C330.3 166.5 350.667 176.5 358.5 181.5C364.5 181.5 367 168.5 367.5 162C367.5 150.8 361.5 138.333 358.5 133.5C354.5 126.3 345.5 119.5 341.5 117C331 116.5 304.6 119.1 283 133.5Z" fill="white"/>
<path d="M222.5 61C218.167 59.5 199.8 57.4 161 61C166.2 70.2 196.833 78.1667 211.5 81C211.5 92.2 218.833 103.333 222.5 107.5C238.9 116.7 246.333 114 248 111.5C246 104.7 247.167 92.3333 248 87C265.2 92.2 276.5 93.5 280 93.5C292.8 93.5 299.667 89.1667 301.5 87C299.167 83.8333 293.3 77.5 288.5 77.5C276.667 72 246.9 61 222.5 61Z" stroke="#06664F"/>
<path d="M283 133.5C274 138.833 255 153.7 251 170.5C270.2 164.1 299.333 165.167 311.5 166.5C330.3 166.5 350.667 176.5 358.5 181.5C364.5 181.5 367 168.5 367.5 162C367.5 150.8 361.5 138.333 358.5 133.5C354.5 126.3 345.5 119.5 341.5 117C331 116.5 304.6 119.1 283 133.5Z" stroke="#06664F"/>
</svg>
